HIERARCHY
ROOT hip
{
  OFFSET 0 0 0
  CHANNELS 6 Xposition Yposition Zposition Zrotation Yrotation Xrotation
  JOINT abdomen
  {
    OFFSET 0 20.6881 -0.73152
    CHANNELS 3 Zrotation Xrotation Yrotation
    JOINT chest
    {
      OFFSET 0 11.7043 -0.48768
      CHANNELS 3 Zrotation Xrotation Yrotation
      JOINT neck
      {
        OFFSET 0 22.1894 -2.19456
        CHANNELS 3 Zrotation Xrotation Yrotation
        JOINT head
        {
          OFFSET -0.24384 7.07133 1.2192
          CHANNELS 3 Zrotation Xrotation Yrotation
          JOINT leftEye
          {
            OFFSET 4.14528 8.04674 8.04672
            CHANNELS 3 Zrotation Xrotation Yrotation
            End Site
            {
              OFFSET 1 0 0
            }
          }
          JOINT rightEye
          {
            OFFSET -3.6576 8.04674 8.04672
            CHANNELS 3 Zrotation Xrotation Yrotation
            End Site
            {
              OFFSET 1 0 0
            }
          }
        }
      }
      JOINT rCollar
      {
        OFFSET -2.68224 19.2634 -4.8768
        CHANNELS 3 Zrotation Xrotation Yrotation
        JOINT rShldr
        {
          OFFSET -8.77824 -1.95073 1.46304
          CHANNELS 3 Zrotation Xrotation Yrotation
          JOINT rForeArm
          {
            OFFSET -28.1742 -1.7115 0.48768
            CHANNELS 3 Zrotation Xrotation Yrotation
            JOINT rHand
            {
              OFFSET -22.5879 0.773209 7.07136
              CHANNELS 3 Zrotation Xrotation Yrotation
              JOINT rThumb1
              {
                OFFSET -1.2192 -0.487915 3.41376
                CHANNELS 3 Zrotation Xrotation Yrotation
                JOINT rThumb2
                {
                  OFFSET -3.37035 -0.52449 3.41376
                  CHANNELS 3 Zrotation Xrotation Yrotation
                  End Site
                  {
                    OFFSET -1.78271 -1.18214 1.43049
                  }
                }
              }
              JOINT rIndex1
              {
                OFFSET -7.75947 0.938293 5.60832
                CHANNELS 3 Zrotation Xrotation Yrotation
                JOINT rIndex2
                {
                  OFFSET -2.54057 -0.884171 1.56538
                  CHANNELS 3 Zrotation Xrotation Yrotation
                  End Site
                  {
                    OFFSET -1.62519 -0.234802 1.16502
                  }
                }
              }
              JOINT rMid1
              {
                OFFSET -8.24714 1.18213 3.41376
                CHANNELS 3 Zrotation Xrotation Yrotation
                JOINT rMid2
                {
                  OFFSET -3.10165 -0.590103 1.0647
                  CHANNELS 3 Zrotation Xrotation Yrotation
                  End Site
                  {
                    OFFSET -2.48547 -0.328903 0.83742
                  }
                }
              }
              JOINT rRing1
              {
                OFFSET -8.82822 0.546677 1.51678
                CHANNELS 3 Zrotation Xrotation Yrotation
                JOINT rRing2
                {
                  OFFSET -2.60934 -0.819778 -0.0198488
                  CHANNELS 3 Zrotation Xrotation Yrotation
                  End Site
                  {
                    OFFSET -2.33842 -0.294052 0.168128
                  }
                }
              }
              JOINT rPinky1
              {
                OFFSET -8.27202 -0.0477905 -0.4584
                CHANNELS 3 Zrotation Xrotation Yrotation
                JOINT rPinky2
                {
                  OFFSET -1.82734 -0.647385 -0.700984
                  CHANNELS 3 Zrotation Xrotation Yrotation
                  End Site
                  {
                    OFFSET -1.69225 -0.51767 -0.607171
                  }
                }
              }
            }
          }
        }
      }
      JOINT lCollar
      {
        OFFSET 2.68224 19.2634 -4.8768
        CHANNELS 3 Zrotation Xrotation Yrotation
        JOINT lShldr
        {
          OFFSET 8.77824 -1.95073 1.46304
          CHANNELS 3 Zrotation Xrotation Yrotation
          JOINT lForeArm
          {
            OFFSET 28.1742 -1.7115 0.48768
            CHANNELS 3 Zrotation Xrotation Yrotation
            JOINT lHand
            {
              OFFSET 22.5879 0.773209 7.07136
              CHANNELS 3 Zrotation Xrotation Yrotation
              JOINT lThumb1
              {
                OFFSET 1.2192 -0.487915 3.41376
                CHANNELS 3 Zrotation Xrotation Yrotation
                JOINT lThumb2
                {
                  OFFSET 3.37035 -0.52449 3.41376
                  CHANNELS 3 Zrotation Xrotation Yrotation
                  End Site
                  {
                    OFFSET 1.78271 -1.18214 1.43049
                  }
                }
              }
              JOINT lIndex1
              {
                OFFSET 7.75947 0.938293 5.60832
                CHANNELS 3 Zrotation Xrotation Yrotation
                JOINT lIndex2
                {
                  OFFSET 2.54057 -0.884171 1.56538
                  CHANNELS 3 Zrotation Xrotation Yrotation
                  End Site
                  {
                    OFFSET 1.62519 -0.234802 1.16502
                  }
                }
              }
              JOINT lMid1
              {
                OFFSET 8.24714 1.18213 3.41376
                CHANNELS 3 Zrotation Xrotation Yrotation
                JOINT lMid2
                {
                  OFFSET 3.10165 -0.590103 1.0647
                  CHANNELS 3 Zrotation Xrotation Yrotation
                  End Site
                  {
                    OFFSET 2.48547 -0.328903 0.83742
                  }
                }
              }
              JOINT lRing1
              {
                OFFSET 8.82822 0.546677 1.51678
                CHANNELS 3 Zrotation Xrotation Yrotation
                JOINT lRing2
                {
                  OFFSET 2.60934 -0.819778 -0.0198488
                  CHANNELS 3 Zrotation Xrotation Yrotation
                  End Site
                  {
                    OFFSET 2.33842 -0.294052 0.168128
                  }
                }
              }
              JOINT lPinky1
              {
                OFFSET 8.27202 -0.0477905 -0.4584
                CHANNELS 3 Zrotation Xrotation Yrotation
                JOINT lPinky2
                {
                  OFFSET 1.82734 -0.647385 -0.700984
                  CHANNELS 3 Zrotation Xrotation Yrotation
                  End Site
                  {
                    OFFSET 1.69225 -0.51767 -0.607171
                  }
                }
              }
            }
          }
        }
      }
    }
  }
  JOINT rButtock
  {
    OFFSET -8.77824 4.35084 1.2192
    CHANNELS 3 Zrotation Xrotation Yrotation
    JOINT rThigh
    {
      OFFSET 0 -1.70687 -2.19456
      CHANNELS 3 Zrotation Xrotation Yrotation
      JOINT rShin
      {
        OFFSET 0 -36.8199 0.73152
        CHANNELS 3 Zrotation Xrotation Yrotation
        JOINT rFoot
        {
          OFFSET 0.73152 -45.1104 -5.12064
          CHANNELS 3 Zrotation Xrotation Yrotation
          End Site
          {
            OFFSET -1.1221 -3.69964 12.103
          }
        }
      }
    }
  }
  JOINT lButtock
  {
    OFFSET 8.77824 4.35084 1.2192
    CHANNELS 3 Zrotation Xrotation Yrotation
    JOINT lThigh
    {
      OFFSET 0 -1.70687 -2.19456
      CHANNELS 3 Zrotation Xrotation Yrotation
      JOINT lShin
      {
        OFFSET 0 -36.8199 0.73152
        CHANNELS 3 Zrotation Xrotation Yrotation
        JOINT lFoot
        {
          OFFSET -0.73152 -45.1104 -5.12064
          CHANNELS 3 Zrotation Xrotation Yrotation
          End Site
          {
            OFFSET 1.1221 -3.69964 12.103
          }
        }
      }
    }
  }
}
MOTION
Frames:	4
Frame Time:	0.00833333
70.6914 85.2022 -99.4836 0.0 0.0 0.0 0.602242 -0.00285568 0.0171684 0.166047 -0.00431785 0.0287697 8.14948e-15 0.0 8.07563e-17 2.42952e-14 3.18055e-15 2.48481e-16 -0.0 0.0 0.0 -0.0 0.0 0.0 3.97447e-15 -5.04727e-18 1.49089e-16 8.70677e-14 -1.61513e-16 2.38542e-15 1.45893e-12 -4.42296e-13 1.59028e-14 1.67145e-11 4.12851e-13 1.74931e-13 3.94227e-11 -6.18382e-14 4.23014e-13 6.80806e-11 -1.04958e-13 7.28347e-13 3.94277e-11 -6.08281e-14 4.10292e-13 7.73091 5.47488 0.417314 3.94216e-11 -6.19214e-14 4.26194e-13 2.90554 0.965183 0.102902 3.94291e-11 -6.15239e-14 4.21424e-13 10.2786 0.731801 0.0259123 3.94222e-11 -6.20208e-14 4.29375e-13 2.22167 -0.733487 -0.20892 3.97719e-15 -6.98852e-18 -4.96962e-17 8.23443e-14 -3.41661e-16 1.98785e-16 1.46077e-12 4.33549e-13 -3.18055e-14 1.67079e-11 -4.60808e-13 2.3218e-13 3.94181e-11 -5.77366e-14 4.23014e-13 6.80766e-11 -1.04958e-13 7.27552e-13 3.94118e-11 -5.80451e-14 4.29375e-13 -7.73091 5.47488 -0.417314 3.94179e-11 -5.81445e-14 4.16653e-13 -2.90554 0.965183 -0.102902 3.94094e-11 -5.78463e-14 4.22219e-13 -10.2786 0.731801 -0.0259123 3.94234e-11 -5.725e-14 4.13472e-13 -2.22167 -0.733487 0.20892 -2.03217e-16 0.0 -3.88251e-19 0.985449 -4.60218 -0.0812413 -0.00202239 2.78417 -0.00803887 -0.532626 1.81803 0.0982263 2.03217e-16 0.0 3.88251e-19 -0.0701705 -2.29252 0.0218608 0.00846676 -1.39935 0.0723347 0.526185 3.69178 -0.136087
72.649 84.1974 -99.6861 8.7205 0.4718 0.3793 -2.70446 0.762004 -0.0758487 1.23932 -0.0368967 -0.0108219 -0.867736 0.413131 -0.580416 0.553672 -0.137755 -0.925879 -0.0 0.0 0.0 -0.0 0.0 0.0 2.67676e-14 -1.20368e-14 -2.15973e-14 22.2153 2.72757 -1.15014 -4.65821 -2.21162 7.16978 0.000626717 -0.568361 -0.0798651 -7.8432e-11 -3.5267e-10 -7.10817e-11 -1.35092e-10 -6.11103e-10 -1.23578e-10 -7.84236e-11 -3.52669e-10 -7.10943e-11 7.73091 5.47488 0.417314 -7.84322e-11 -3.5267e-10 -7.10784e-11 2.90554 0.965183 0.102902 -7.8426e-11 -3.52669e-10 -7.1083e-11 10.2786 0.731801 0.0259123 -7.84317e-11 -3.52669e-10 -7.10744e-11 2.22167 -0.733487 -0.20892 2.67336e-14 -1.20375e-14 -2.17972e-14 -20.7276 8.76408 -2.3846 7.9318 -4.86262 -10.7238 -0.047043 -4.81435 0.668014 -2.34653e-11 -2.71566e-10 1.53175e-10 -4.31574e-11 -4.77302e-10 2.65024e-10 -2.34694e-11 -2.71565e-10 1.53182e-10 -7.73091 5.47488 -0.417314 -2.34645e-11 -2.71566e-10 1.53172e-10 -2.90554 0.965183 -0.102902 -2.34712e-11 -2.71566e-10 1.53175e-10 -10.2786 0.731801 -0.0259123 -2.34603e-11 -2.71566e-10 1.53167e-10 -2.22167 -0.733487 0.20892 -2.03217e-16 0.0 -3.88251e-19 -2.64689 -12.045 0.765083 -0.0241623 10.4098 0.0613542 -0.821363 0.384691 -4.24942 2.03217e-16 0.0 3.88251e-19 -2.81384 -1.76666 -0.557603 0.0144648 3.45232 0.00633614 0.484281 0.70705 -0.396345
72.6868 84.4107 -98.8578 8.9768 0.6917 0.6128 -6.20746 1.57931 -0.168392 2.37685 -0.077848 -0.0511959 -1.77279 0.856321 -1.192 1.13148 -0.29985 -1.90146 -0.0 0.0 0.0 -0.0 0.0 0.0 5.60169e-14 -2.50002e-14 -4.46303e-14 45.8236 5.60248 -2.38259 -8.97638 -4.42695 14.7692 -0.000445153 -1.15523 -0.162358 -2.31344e-10 -7.17786e-10 -1.549e-10 -3.98757e-10 -1.24388e-09 -2.6924e-10 -2.31332e-10 -7.17785e-10 -1.54912e-10 7.73091 5.47488 0.417314 -2.31343e-10 -7.17785e-10 -1.54896e-10 2.90554 0.965183 0.102902 -2.31339e-10 -7.17785e-10 -1.54901e-10 10.2786 0.731801 0.0259123 -2.31343e-10 -7.17784e-10 -1.54891e-10 2.22167 -0.733487 -0.20892 5.59398e-14 -2.49997e-14 -4.48322e-14 -41.8255 17.9624 -5.08205 14.3304 -9.39574 -22.2588 0.0269485 -9.89868 1.38965 -1.05283e-10 -6.05616e-10 3.2017e-10 -1.87278e-10 -1.06317e-09 5.53781e-10 -1.05285e-10 -6.05612e-10 3.20176e-10 -7.73091 5.47488 -0.417314 -1.05281e-10 -6.05614e-10 3.20169e-10 -2.90554 0.965183 -0.102902 -1.05286e-10 -6.05614e-10 3.20169e-10 -10.2786 0.731801 -0.0259123 -1.05278e-10 -6.05615e-10 3.20161e-10 -2.22167 -0.733487 0.20892 -2.03217e-16 0.0 -3.88251e-19 -6.23606 -19.9182 1.62143 -0.0698688 18.599 0.142331 -1.35359 -1.06417 -8.79561 2.03217e-16 0.0 3.88251e-19 -5.71056 -1.27445 -1.16521 0.0331453 8.6423 -0.0659139 0.412055 -2.47324 -0.655537
72.7222 84.5015 -97.9995 9.1793 0.92 0.7935 -9.31042 2.2917 -0.262072 3.38574 -0.102054 -0.0900053 -2.5781 1.23888 -1.74161 1.64766 -0.412834 -2.7777 -0.0 0.0 0.0 -0.0 0.0 0.0 7.23539e-14 -3.61002e-14 -6.50899e-14 66.9771 8.16945 -3.48188 -12.3493 -6.22018 21.6269 -0.00287509 -1.70507 -0.23969 -3.14142e-10 -1.05789e-09 -2.14091e-10 -5.41436e-10 -1.8331e-09 -3.72192e-10 -3.14126e-10 -1.05789e-09 -2.14103e-10 7.73091 5.47488 0.417314 -3.1414e-10 -1.05788e-09 -2.14088e-10 2.90554 0.965183 0.102902 -3.14136e-10 -1.05788e-09 -2.14092e-10 10.2786 0.731801 0.0259123 -3.14139e-10 -1.05788e-09 -2.14082e-10 2.22167 -0.733487 -0.20892 7.22465e-14 -3.60985e-14 -6.52922e-14 -59.7899 26.0994 -7.87784 18.5469 -12.5422 -32.9355 0.204922 -14.4351 2.0621 -1.49232e-10 -8.14584e-10 4.5868e-10 -2.65625e-10 -1.4317e-09 7.93616e-10 -1.49232e-10 -8.14579e-10 4.58688e-10 -7.73091 5.47488 -0.417314 -1.49229e-10 -8.14581e-10 4.58681e-10 -2.90554 0.965183 -0.102902 -1.49232e-10 -8.14581e-10 4.5868e-10 -10.2786 0.731801 -0.0259123 -1.49228e-10 -8.14583e-10 4.58673e-10 -2.22167 -0.733487 0.20892 -2.03217e-16 0.0 -3.88251e-19 -9.18139 -26.908 2.69907 -0.129092 25.6609 0.218658 -2.04641 -2.41579 -12.956 2.03217e-16 0.0 3.88251e-19 -8.26927 -0.714858 -1.71583 0.0605075 13.1557 -0.129039 0.318839 -5.26171 -0.921218
